<svg width="87" height="87" viewBox="0 0 87 87" fill="none" xmlns="http://www.w3.org/2000/svg">
<circle cx="43.5" cy="43.5" r="42.5" fill="#D9D9D9" fill-opacity="0.1" stroke="#EBEF2F" stroke-width="2"/>
<g clip-path="url(#clip0_142_2371)">
<path d="M43.5 50.6667C48.5492 50.6667 52.5946 46.87 52.5946 42.1667L52.625 25.1667C52.625 20.4634 48.5492 16.6667 43.5 16.6667C38.4508 16.6667 34.375 20.4634 34.375 25.1667V42.1667C34.375 46.87 38.4508 50.6667 43.5 50.6667ZM59.6208 42.1667C59.6208 50.6667 51.895 56.6167 43.5 56.6167C35.105 56.6167 27.3792 50.6667 27.3792 42.1667H22.2083C22.2083 51.8284 30.4817 59.8184 40.4583 61.2067V70.5H46.5417V61.2067C56.5183 59.8467 64.7917 51.8567 64.7917 42.1667H59.6208Z" fill="#EBEF2F"/>
</g>
<defs>
<clipPath id="clip0_142_2371">
<rect width="73" height="68" fill="white" transform="translate(7 11)"/>
</clipPath>
</defs>
</svg>
